control3min_grf.mot
version=1
nRows=25
nColumns 19
inDegrees=yes
endheader
time	1_ground_force_vx	1_ground_force_vy	1_ground_force_vz	1_ground_force_px	1_ground_force_py	1_ground_force_pz	1_ground_torque_x	1_ground_torque_y	1_ground_torque_z	2_ground_force_vx	2_ground_force_vy	2_ground_force_vz	2_ground_force_px	2_ground_force_py	2_ground_force_pz	2_ground_torque_x	2_ground_torque_y	2_ground_torque_z
            3.751500	            0.596088	            0.540519	            0.092552	           -0.233013	            0.005581	           -0.255695	            0.127106	            0.055924	           -0.012280	            0.333287	           -1.472170	            0.041532	           -0.232311	            0.006130	           -0.833667	           -0.112576	           -0.038218	           -0.000087
            3.752000	            0.138212	           -0.001153	            0.274794	           -0.233013	            0.005581	           -0.255695	            0.044236	           -0.054734	           -0.144865	           -0.000041	            0.000335	           -0.093856	           -0.232311	            0.006130	           -0.833667	           -0.131370	           -0.029035	            0.056505
            3.752500	            0.275546	           -0.180999	            0.181968	           -0.233013	            0.005581	           -0.255695	            0.179790	           -0.138000	           -0.102092	           -0.324688	           -0.921424	           -0.143930	           -0.232311	            0.006130	           -0.833667	           -0.093833	           -0.028630	           -0.018911
            3.753000	            0.183321	            0.901167	            0.049266	           -0.233013	            0.005581	           -0.255695	            0.222592	           -0.156686	           -0.068630	            0.094282	           -0.183141	           -0.188409	           -0.232311	            0.006130	           -0.833667	           -0.093867	           -0.019177	           -0.018878
            3.753500	            0.229524	            0.179720	            0.137772	           -0.233013	            0.005581	           -0.255695	            0.200367	           -0.101206	           -0.066357	           -0.327223	           -0.185835	            0.140267	           -0.232311	            0.006130	           -0.833667	           -0.093636	           -0.085279	           -0.037964
            3.754000	            0.229215	            0.000044	           -0.000569	           -0.233013	            0.005581	           -0.255695	            0.131015	           -0.036117	           -0.159889	            0.051461	           -1.288534	           -0.098476	           -0.232311	            0.006130	           -0.833667	            0.018991	           -0.065832	           -0.075645
            3.754500	            0.458951	           -0.361229	            0.180740	           -0.233013	            0.005581	           -0.255695	            0.161314	            0.000410	           -0.018435	            0.191284	           -1.103376	           -0.238663	           -0.232311	            0.006130	           -0.833667	           -0.093636	           -0.085279	           -0.037964
            3.755000	            0.183974	           -0.181213	            0.228051	           -0.233013	            0.005581	           -0.255695	            0.084314	           -0.009296	            0.045172	            0.094344	           -0.183643	           -0.047625	           -0.232311	            0.006130	           -0.833667	           -0.018743	           -0.009588	            0.018824
            3.755500	            0.367571	            1.079895	            0.416431	           -0.233013	            0.005581	           -0.255695	            0.131938	           -0.082982	            0.014916	            0.328593	           -0.182797	           -0.047725	           -0.232311	            0.006130	           -0.833667	           -0.056151	           -0.056920	           -0.000178
            3.756000	            0.229653	            0.720124	            0.231803	           -0.233013	            0.005581	           -0.255695	            0.083385	           -0.110307	           -0.103721	            0.003885	           -1.104053	           -0.238583	           -0.232311	            0.006130	           -0.833667	           -0.018666	           -0.028560	            0.037607
            3.756500	            0.184088	           -0.181410	            0.273907	           -0.233013	            0.005581	           -0.255695	            0.082094	           -0.092002	           -0.067965	           -0.045582	           -0.367964	           -0.142079	           -0.232311	            0.006130	           -0.833667	           -0.131233	           -0.076029	           -0.019064
            3.757000	            0.092678	            0.178514	            0.413249	           -0.233013	            0.005581	           -0.255695	            0.188896	           -0.074015	            0.040713	            0.190723	           -0.920065	           -0.003365	           -0.232311	            0.006130	           -0.833667	           -0.093740	           -0.047737	            0.037572
            3.757500	            0.367604	            0.899630	            0.415658	           -0.233013	            0.005581	           -0.255695	            0.094361	           -0.036530	           -0.041179	            0.047412	           -0.183142	           -0.235317	           -0.232311	            0.006130	           -0.833667	           -0.187683	           -0.047942	           -0.000089
            3.758000	            0.458819	            0.359833	            0.183832	           -0.233013	            0.005581	           -0.255695	            0.066851	            0.000633	           -0.074619	           -0.044233	           -0.736428	           -0.096465	           -0.232311	            0.006130	           -0.833667	           -0.112482	           -0.066509	           -0.019038
            3.758500	            0.412961	           -0.180776	            0.135771	           -0.233013	            0.005581	           -0.255695	            0.069152	           -0.017876	           -0.076640	           -0.232214	           -0.553626	            0.091985	           -0.232311	            0.006130	           -0.833667	           -0.074970	           -0.056719	           -0.075571
            3.759000	            0.275202	            1.081057	            0.141523	           -0.233013	            0.005581	           -0.255695	            0.068287	           -0.054832	           -0.101503	            0.048138	           -0.367793	           -0.095190	           -0.232311	            0.006130	           -0.833667	           -0.075099	           -0.009791	            0.018848
            3.759500	            0.137870	           -0.000563	            0.137226	           -0.233013	            0.005581	           -0.255695	            0.144124	           -0.175126	           -0.089235	           -0.090418	           -0.920745	           -0.097102	           -0.232311	            0.006130	           -0.833667	           -0.074800	           -0.094798	           -0.000305
            3.760000	            0.229392	            0.900783	            0.140864	           -0.233013	            0.005581	           -0.255695	            0.068598	           -0.129123	           -0.028579	            0.003220	           -0.919905	           -0.237926	           -0.232311	            0.006130	           -0.833667	           -0.074921	           -0.047938	            0.112965
            3.760500	            0.321584	           -0.001118	            0.274339	           -0.233013	            0.005581	           -0.255695	            0.119437	           -0.054796	           -0.099637	            0.286457	           -1.472506	            0.088480	           -0.232311	            0.006130	           -0.833667	           -0.093483	           -0.123224	           -0.000399
            3.761000	            0.320820	           -0.180007	           -0.047425	           -0.233013	            0.005581	           -0.255695	            0.077200	           -0.036813	            0.013340	            0.188044	           -0.183304	           -0.047665	           -0.232311	            0.006130	           -0.833667	           -0.018547	           -0.066237	           -0.000228
            3.761500	            0.321273	            1.080673	            0.233121	           -0.233013	            0.005581	           -0.255695	            0.064419	           -0.008672	           -0.080543	            0.140426	            0.001512	           -0.281628	           -0.232311	            0.006130	           -0.833667	           -0.074920	           -0.057122	            0.037530
            3.762000	            0.229622	           -0.361077	            0.135453	           -0.233013	            0.005581	           -0.255695	            0.050345	           -0.063939	           -0.140998	            0.093659	            0.000673	           -0.093896	           -0.232311	            0.006130	           -0.833667	           -0.150010	           -0.076164	           -0.000206
            3.762500	            0.229281	           -0.360487	           -0.002115	           -0.233013	            0.005581	           -0.255695	            0.187807	           -0.091970	           -0.066267	            0.005255	           -1.472684	           -0.146041	           -0.232311	            0.006130	           -0.833667	           -0.056195	           -0.038216	            0.056440
            3.763000	            0.458837	           -0.361033	            0.134884	           -0.233013	            0.005581	           -0.255695	            0.125327	           -0.119038	           -0.188041	            0.096153	           -0.734581	           -0.471949	           -0.232311	            0.006130	           -0.833667	           -0.131343	           -0.047604	           -0.037813
            3.763500	            0.550326	            0.720579	            0.139294	           -0.233013	            0.005581	           -0.255695	            0.087428	           -0.138054	           -0.052570	            0.144558	           -1.104550	            0.042926	           -0.232311	            0.006130	           -0.833667	           -0.056177	           -0.047534	            0.018706
